<?xml version="1.0" encoding="utf-8"?>
<!-- Generator: Adobe Illustrator 25.4.1, SVG Export Plug-In . SVG Version: 6.00 Build 0)  -->
<svg version="1.1" id="Layer_1" xmlns="http://www.w3.org/2000/svg" xmlns:xlink="http://www.w3.org/1999/xlink" x="0px" y="0px"
	 viewBox="0 0 126 126" style="enable-background:new 0 0 126 126;" xml:space="preserve">
<style type="text/css">
	.st0{fill:none;stroke:#F54572;stroke-width:7.8207;}
</style>
<g>
	<path class="st0" d="M60.1,10.1c1.1-2.6,4.7-2.6,5.8,0l13,31.3c0.5,1.1,1.5,1.8,2.7,1.9l33.8,2.7c2.8,0.2,3.9,3.7,1.8,5.5
		L91.4,73.7c-0.9,0.8-1.3,2-1,3.1l7.9,33c0.7,2.7-2.3,4.9-4.7,3.4L64.6,95.5c-1-0.6-2.3-0.6-3.3,0l-28.9,17.7
		c-2.4,1.5-5.4-0.7-4.7-3.4l7.9-33c0.3-1.1-0.1-2.4-1-3.1L8.8,51.6c-2.1-1.8-1-5.3,1.8-5.5l33.8-2.7c1.2-0.1,2.2-0.8,2.7-1.9
		L60.1,10.1z"/>
</g>
</svg>
