<svg width="27" height="31" viewBox="0 0 27 31" fill="none" xmlns="http://www.w3.org/2000/svg">
<path d="M1.125 7.25L5.25 1.75H21.75L25.875 7.25M1.125 7.25V26.5C1.125 27.2293 1.41473 27.9288 1.93046 28.4445C2.44618 28.9603 3.14565 29.25 3.875 29.25H23.125C23.8543 29.25 24.5538 28.9603 25.0695 28.4445C25.5853 27.9288 25.875 27.2293 25.875 26.5V7.25M1.125 7.25H25.875M19 12.75C19 14.2087 18.4205 15.6076 17.3891 16.6391C16.3576 17.6705 14.9587 18.25 13.5 18.25C12.0413 18.25 10.6424 17.6705 9.61091 16.6391C8.57946 15.6076 8 14.2087 8 12.75" stroke="#5D3F0D" stroke-width="2" stroke-linecap="round" stroke-linejoin="round"/>
</svg>
