<svg width="107" height="107" viewBox="0 0 107 107" fill="none" xmlns="http://www.w3.org/2000/svg">
<path d="M89.1667 53.5V98.0833H17.8334V53.5M53.5 98.0833V31.2083M53.5 31.2083H33.4375C30.4815 31.2083 27.6465 30.034 25.5562 27.9438C23.466 25.8535 22.2917 23.0185 22.2917 20.0625C22.2917 17.1064 23.466 14.2714 25.5562 12.1812C27.6465 10.0909 30.4815 8.91666 33.4375 8.91666C49.0417 8.91666 53.5 31.2083 53.5 31.2083ZM53.5 31.2083H73.5625C76.5186 31.2083 79.3536 30.034 81.4438 27.9438C83.5341 25.8535 84.7084 23.0185 84.7084 20.0625C84.7084 17.1064 83.5341 14.2714 81.4438 12.1812C79.3536 10.0909 76.5186 8.91666 73.5625 8.91666C57.9584 8.91666 53.5 31.2083 53.5 31.2083ZM8.91669 31.2083H98.0834V53.5H8.91669V31.2083Z" stroke="#F54572" stroke-width="8.91667" stroke-linecap="round" stroke-linejoin="round"/>
</svg>
